<svg width="20" height="20" viewBox="0 0 20 20" fill="none" xmlns="http://www.w3.org/2000/svg">
<path fill-rule="evenodd" clip-rule="evenodd" d="M15.6749 5.99547C15.886 6.21164 15.886 6.56213 15.6749 6.77831L8.61792 14.0045C8.40681 14.2207 8.06453 14.2207 7.85342 14.0045L4.32492 10.3914C4.11381 10.1752 4.11381 9.82476 4.32492 9.60858C4.53603 9.3924 4.87831 9.3924 5.08943 9.60858L8.23567 12.8303L14.9104 5.99547C15.1215 5.77929 15.4638 5.77929 15.6749 5.99547Z" fill="#28906F"/>
<path fill-rule="evenodd" clip-rule="evenodd" d="M15.9134 5.76257C16.251 6.10825 16.251 6.66552 15.9134 7.0112L8.8564 14.2374C8.51451 14.5875 7.95684 14.5875 7.61494 14.2374L4.08644 10.6243C3.74886 10.2786 3.74886 9.72137 4.08644 9.37569C4.42834 9.02559 4.98601 9.02559 5.32791 9.37569L8.23567 12.3532L14.6719 5.76257C15.0138 5.41248 15.5715 5.41248 15.9134 5.76257ZM8.23567 12.8303L5.08943 9.60858C4.87831 9.3924 4.53603 9.3924 4.32492 9.60858C4.11381 9.82476 4.11381 10.1752 4.32492 10.3914L7.85342 14.0045C8.06453 14.2207 8.40681 14.2207 8.61792 14.0045L15.6749 6.77831C15.886 6.56213 15.886 6.21164 15.6749 5.99547C15.4638 5.77929 15.1215 5.77929 14.9104 5.99547L8.23567 12.8303Z" fill="#28906F"/>
</svg>
