<svg width="32" height="32" viewBox="0 0 32 32" fill="none" xmlns="http://www.w3.org/2000/svg">
<path d="M20.7867 16.5333V21.96C20.7867 22.44 20.7334 22.8933 20.6134 23.3067C20.1201 25.2667 18.4934 26.4933 16.2534 26.4933H12.6267L8.60008 29.1733C8.00008 29.5867 7.20008 29.1467 7.20008 28.4267V26.4933C5.84008 26.4933 4.70675 26.04 3.92008 25.2533C3.12008 24.4533 2.66675 23.32 2.66675 21.96V16.5333C2.66675 14 4.24008 12.2533 6.66675 12.0267C6.84008 12.0133 7.01341 12 7.20008 12H16.2534C18.9734 12 20.7867 13.8133 20.7867 16.5333Z" fill="#0E0F11"/>
<path d="M23.6667 20.7998C25.3601 20.7998 26.7867 20.2398 27.7734 19.2398C28.7734 18.2532 29.3334 16.8265 29.3334 15.1332V8.33317C29.3334 5.19984 26.8001 2.6665 23.6667 2.6665H12.3334C9.20008 2.6665 6.66675 5.19984 6.66675 8.33317V9.33317C6.66675 9.7065 6.96008 9.99984 7.33341 9.99984H16.2534C19.8667 9.99984 22.7867 12.9198 22.7867 16.5332V20.1332C22.7867 20.5065 23.0801 20.7998 23.4534 20.7998H23.6667V20.7998Z" fill="#0E0F11"/>
</svg>
